<svg
  xmlns="http://www.w3.org/2000/svg"
  version="1.1"
  xmlns:xlink="http://www.w3.org/1999/xlink"
  xmlns:svgjs="http://svgjs.dev/svgjs"
  width="128"
  height="128"
  viewBox="0 0 128 128"
>
  <g transform="matrix(0.8046875,0,0,0.8046875,12.760752631578946,30.960780880627638)">
    <svg
      viewBox="0 0 95 61"
      data-background-color="#16161f"
      preserveAspectRatio="xMidYMid meet"
      height="82"
      width="128"
      xmlns="http://www.w3.org/2000/svg"
      xmlns:xlink="http://www.w3.org/1999/xlink"
    >
      <g id="tight-bounds" transform="matrix(1,0,0,1,-0.24049999999999727,0.04347891120760039)">
        <svg viewBox="0 0 95.481 60.9130421775848" height="60.9130421775848" width="95.481">
          <g>
            <svg viewBox="0 0 95.481 60.9130421775848" height="60.9130421775848" width="95.481">
              <g>
                <svg viewBox="0 0 95.481 60.9130421775848" height="60.9130421775848" width="95.481">
                  <g id="textblocktransform">
                    <svg
                      viewBox="0 0 95.481 60.9130421775848"
                      height="60.9130421775848"
                      width="95.481"
                      id="textblock"
                    >
                      <g>
                        <svg
                          viewBox="0 0 95.481 60.9130421775848"
                          height="60.9130421775848"
                          width="95.481"
                        >
                          <g>
                            <svg
                              viewBox="0 0 95.481 60.9130421775848"
                              height="60.9130421775848"
                              width="95.481"
                            >
                              <g>
                                <svg
                                  xmlns="http://www.w3.org/2000/svg"
                                  xmlns:xlink="http://www.w3.org/1999/xlink"
                                  version="1.1"
                                  x="0"
                                  y="0"
                                  viewBox="8 24 83.836 53.483999999999995"
                                  enable-background="new 0 0 100 100"
                                  xml:space="preserve"
                                  height="60.9130421775848"
                                  width="95.481"
                                  class="icon-icon-0"
                                  data-fill-palette-color="accent"
                                  id="icon-0"
                                >
                                  <path
                                    d="M83.924 24c-4.363 0-7.913 3.55-7.913 7.913 0 1.461 0.405 2.825 1.098 4.001L64.486 48.536c-1.13-0.622-2.426-0.978-3.804-0.978-3.191 0-5.942 1.903-7.192 4.631L41.195 49.8c-0.803-3.519-3.951-6.154-7.709-6.154-4.363 0-7.913 3.55-7.913 7.913 0 1.309 0.325 2.543 0.89 3.631l-7.214 7.216c-1.016-0.475-2.143-0.747-3.335-0.747C11.55 61.658 8 65.208 8 69.571s3.55 7.913 7.913 7.913c4.364 0 7.914-3.55 7.914-7.913 0-1.207-0.279-2.347-0.765-3.371l7.35-7.351c0.945 0.4 1.984 0.622 3.074 0.622 3.07 0 5.73-1.76 7.042-4.32l12.538 2.437c0.929 3.337 3.988 5.797 7.617 5.797 4.363 0 7.913-3.55 7.913-7.913 0-1.019-0.2-1.989-0.553-2.885l13.229-13.228c0.83 0.296 1.721 0.467 2.651 0.467 4.363 0 7.913-3.55 7.913-7.913S88.287 24 83.924 24zM15.913 72.104c-1.397 0-2.533-1.137-2.533-2.533 0-1.397 1.136-2.533 2.533-2.533 1.397 0 2.534 1.136 2.534 2.533C18.447 70.968 17.311 72.104 15.913 72.104zM33.486 54.092c-1.397 0-2.534-1.137-2.534-2.533 0-1.397 1.137-2.533 2.534-2.533s2.534 1.136 2.534 2.533C36.02 52.955 34.883 54.092 33.486 54.092zM60.683 58.005c-1.397 0-2.533-1.137-2.533-2.533 0-1.397 1.136-2.533 2.533-2.533 1.396 0 2.533 1.136 2.533 2.533C63.216 56.868 62.079 58.005 60.683 58.005zM83.924 34.446c-1.397 0-2.533-1.136-2.533-2.533s1.136-2.533 2.533-2.533c1.396 0 2.533 1.136 2.533 2.533S85.32 34.446 83.924 34.446z"
                                    fill="#00bfe6"
                                    data-fill-palette-color="accent"
                                  ></path>
                                </svg>
                              </g>
                            </svg>
                          </g>
                        </svg>
                      </g>
                    </svg>
                  </g>
                </svg>
              </g>
            </svg>
          </g>
          <defs></defs>
        </svg>
        <rect
          width="95.481"
          height="60.9130421775848"
          fill="none"
          stroke="none"
          visibility="hidden"
        ></rect>
      </g>
    </svg>
  </g>
</svg>
