<svg
  id="visual"
  viewBox="0 0 960 540"
  width="960"
  height="540"
  xmlns="http://www.w3.org/2000/svg"
  xmlns:xlink="http://www.w3.org/1999/xlink"
  version="1.1"
>
  <path
    d="M0 97L11.5 94.7C23 92.3 46 87.7 68.8 84.8C91.7 82 114.3 81 137.2 84.2C160 87.3 183 94.7 205.8 95.7C228.7 96.7 251.3 91.3 274.2 88.5C297 85.7 320 85.3 342.8 84.2C365.7 83 388.3 81 411.2 78.7C434 76.3 457 73.7 480 76.5C503 79.3 526 87.7 548.8 86.2C571.7 84.7 594.3 73.3 617.2 72.7C640 72 663 82 685.8 88.5C708.7 95 731.3 98 754.2 98C777 98 800 95 822.8 89C845.7 83 868.3 74 891.2 72C914 70 937 75 948.5 77.5L960 80L960 0L948.5 0C937 0 914 0 891.2 0C868.3 0 845.7 0 822.8 0C800 0 777 0 754.2 0C731.3 0 708.7 0 685.8 0C663 0 640 0 617.2 0C594.3 0 571.7 0 548.8 0C526 0 503 0 480 0C457 0 434 0 411.2 0C388.3 0 365.7 0 342.8 0C320 0 297 0 274.2 0C251.3 0 228.7 0 205.8 0C183 0 160 0 137.2 0C114.3 0 91.7 0 68.8 0C46 0 23 0 11.5 0L0 0Z"
    fill="#07404b"
  ></path>
  <path
    d="M0 59L11.5 60.5C23 62 46 65 68.8 61.7C91.7 58.3 114.3 48.7 137.2 45C160 41.3 183 43.7 205.8 43.3C228.7 43 251.3 40 274.2 40.3C297 40.7 320 44.3 342.8 51.8C365.7 59.3 388.3 70.7 411.2 74C434 77.3 457 72.7 480 67.3C503 62 526 56 548.8 54.8C571.7 53.7 594.3 57.3 617.2 59.2C640 61 663 61 685.8 59.7C708.7 58.3 731.3 55.7 754.2 54.3C777 53 800 53 822.8 56.8C845.7 60.7 868.3 68.3 891.2 69.7C914 71 937 66 948.5 63.5L960 61L960 0L948.5 0C937 0 914 0 891.2 0C868.3 0 845.7 0 822.8 0C800 0 777 0 754.2 0C731.3 0 708.7 0 685.8 0C663 0 640 0 617.2 0C594.3 0 571.7 0 548.8 0C526 0 503 0 480 0C457 0 434 0 411.2 0C388.3 0 365.7 0 342.8 0C320 0 297 0 274.2 0C251.3 0 228.7 0 205.8 0C183 0 160 0 137.2 0C114.3 0 91.7 0 68.8 0C46 0 23 0 11.5 0L0 0Z"
    fill="#14313f"
  ></path>
  <path
    d="M0 48L11.5 49.7C23 51.3 46 54.7 68.8 55.7C91.7 56.7 114.3 55.3 137.2 49.2C160 43 183 32 205.8 33.2C228.7 34.3 251.3 47.7 274.2 49.3C297 51 320 41 342.8 38.5C365.7 36 388.3 41 411.2 45.8C434 50.7 457 55.3 480 55.5C503 55.7 526 51.3 548.8 49C571.7 46.7 594.3 46.3 617.2 42.2C640 38 663 30 685.8 27.5C708.7 25 731.3 28 754.2 34C777 40 800 49 822.8 48.5C845.7 48 868.3 38 891.2 36.7C914 35.3 937 42.7 948.5 46.3L960 50L960 0L948.5 0C937 0 914 0 891.2 0C868.3 0 845.7 0 822.8 0C800 0 777 0 754.2 0C731.3 0 708.7 0 685.8 0C663 0 640 0 617.2 0C594.3 0 571.7 0 548.8 0C526 0 503 0 480 0C457 0 434 0 411.2 0C388.3 0 365.7 0 342.8 0C320 0 297 0 274.2 0C251.3 0 228.7 0 205.8 0C183 0 160 0 137.2 0C114.3 0 91.7 0 68.8 0C46 0 23 0 11.5 0L0 0Z"
    fill="#182330"
  ></path>
  <path
    d="M0 3L11.5 4.2C23 5.3 46 7.7 68.8 10.2C91.7 12.7 114.3 15.3 137.2 18.8C160 22.3 183 26.7 205.8 30.2C228.7 33.7 251.3 36.3 274.2 31.8C297 27.3 320 15.7 342.8 11.2C365.7 6.7 388.3 9.3 411.2 9C434 8.7 457 5.3 480 7.2C503 9 526 16 548.8 17C571.7 18 594.3 13 617.2 15.2C640 17.3 663 26.7 685.8 27.5C708.7 28.3 731.3 20.7 754.2 18.7C777 16.7 800 20.3 822.8 23.5C845.7 26.7 868.3 29.3 891.2 28.2C914 27 937 22 948.5 19.5L960 17L960 0L948.5 0C937 0 914 0 891.2 0C868.3 0 845.7 0 822.8 0C800 0 777 0 754.2 0C731.3 0 708.7 0 685.8 0C663 0 640 0 617.2 0C594.3 0 571.7 0 548.8 0C526 0 503 0 480 0C457 0 434 0 411.2 0C388.3 0 365.7 0 342.8 0C320 0 297 0 274.2 0C251.3 0 228.7 0 205.8 0C183 0 160 0 137.2 0C114.3 0 91.7 0 68.8 0C46 0 23 0 11.5 0L0 0Z"
    fill="#16161f"
  ></path>
</svg>
